<svg width="41" height="41" viewBox="0 0 41 41" fill="none" xmlns="http://www.w3.org/2000/svg">
<path fill-rule="evenodd" clip-rule="evenodd" d="M11.8069 10.8398C16.9327 6.22338 24.7899 6.40544 29.6926 11.307C34.7691 16.3837 34.7691 24.6147 29.6926 29.6925C24.6161 34.7692 16.3854 34.7692 11.3077 29.6925C8.95547 27.3402 7.5 24.0902 7.5 20.4999H9.75031C9.75031 26.4379 14.5624 31.2502 20.5002 31.2502C26.4369 31.2502 31.2502 26.4379 31.2502 20.4999C31.2502 12.5794 22.9887 7.45115 15.9379 10.7576C14.9588 11.2168 14.061 11.8192 13.2696 12.5373L14.9393 13.2634C15.1317 13.347 15.1157 13.7043 14.8145 13.7306L11.3686 14.033C10.7479 14.033 10.244 13.529 10.244 12.9084L10.662 9.29523C10.6987 8.98145 11.0537 8.98945 11.1235 9.16239L11.8069 10.8398Z" fill="black"/>
</svg>
